 <svg xmlns="http://www.w3.org/2000/svg" xmlns:xlink="http://www.w3.org/1999/xlink" x="0px" y="0px" width="26px" height="16px" viewBox="0 0 26 16" enable-background="new 0 0 26 16" xml:space="preserve" aria-hidden="true" focusable="false">
<g id="Icons">
	<g>
		<g>
			<g>
				<path d="M6.981,15.902c-1.737,0-3.15-1.391-3.15-3.101c0-1.71,1.413-3.101,3.15-3.101s3.15,1.391,3.15,3.101
					C10.131,14.512,8.718,15.902,6.981,15.902z M6.981,11.454c-0.745,0-1.35,0.605-1.35,1.348c0,0.744,0.605,1.349,1.35,1.349
					s1.35-0.605,1.35-1.349C8.332,12.059,7.726,11.454,6.981,11.454z"></path>
			</g>
			<g>
				<path d="M18.602,15.876c-1.356-0.385-2.352-1.617-2.352-3.075c0-1.764,1.458-3.198,3.25-3.198s3.25,1.435,3.25,3.198
					c0,1.764-1.458,3.199-3.25,3.199C19.188,16,18.887,15.957,18.602,15.876 M19.5,11.551c-0.689,0-1.25,0.562-1.25,1.25
					c0,0.69,0.561,1.251,1.25,1.251s1.25-0.561,1.25-1.251C20.75,12.112,20.189,11.551,19.5,11.551z"></path>
			</g>
			<g>
				<path d="M16.682,13.765H9.588c-0.552,0-1-0.436-1-0.974c0-0.538,0.448-0.975,1-0.975h7.094c0.552,0,1,0.437,1,0.975
					C17.682,13.329,17.234,13.765,16.682,13.765z"></path>
			</g>
			<g>
				<path d="M25,13.765h-3.25c-0.552,0-1-0.436-1-0.974c0-0.538,0.448-0.975,1-0.975H24V8.845c0-0.9-0.734-1.646-1.636-1.662
					l-1.151-0.021H1.796c-0.552,0-1-0.436-1-0.974c0-0.538,0.448-0.974,1-0.974l20.605,0.021C24.386,5.271,26,6.891,26,8.845v3.946
					C26,13.329,25.552,13.765,25,13.765z"></path>
			</g>
			<g>
				<path d="M4.652,13.713L0,12.173V5.961l2.367-4.688C2.763,0.488,3.564,0,4.457,0h10.581c0.723,0,1.392,0.321,1.837,0.88
					l3.56,4.466l-1.58,1.194l-3.561-4.466c-0.064-0.081-0.157-0.126-0.257-0.126H4.457c-0.125,0-0.238,0.071-0.295,0.185L2,6.414
					v4.363l3.296,1.092L4.652,13.713z"></path>
			</g>
			<g>
				<path d="M10.333,7.009c-0.552,0-1-0.436-1-0.974V1.254c0-0.538,0.448-0.974,1-0.974s1,0.436,1,0.974v4.781
					C11.333,6.573,10.886,7.009,10.333,7.009z"></path>
			</g>
		</g>
	</g>
</g>
<g id="Grid" display="none">
</g>
</svg>