<svg version="1.1" xmlns="http://www.w3.org/2000/svg" xmlns:xlink="http://www.w3.org/1999/xlink" x="0px" y="0px" width="23px" height="17px" viewBox="0 0 23 17" enable-background="new 0 0 23 17" xml:space="preserve" aria-hidden="true" focusable="false">
<g id="Icons">
	<g>
		<g>
			<g>
				<path d="M8.032,9.48H0.997C0.446,9.48,0,9.041,0,8.5s0.446-0.98,0.997-0.98h7.035c0.551,0,0.997,0.439,0.997,0.98
					S8.583,9.48,8.032,9.48z"></path>
			</g>
			<g>
				<path d="M9.871,4.581H4.595c-0.552,0-0.997-0.438-0.997-0.98c0-0.541,0.445-0.979,0.997-0.979h5.276
					c0.551,0,0.997,0.438,0.997,0.979C10.868,4.143,10.422,4.581,9.871,4.581z"></path>
			</g>
			<g>
				<path d="M9.871,14.378H4.595c-0.552,0-0.997-0.438-0.997-0.979c0-0.542,0.445-0.98,0.997-0.98h5.276
					c0.551,0,0.997,0.438,0.997,0.98C10.868,13.94,10.422,14.378,9.871,14.378z"></path>
			</g>
			<g>
				<path d="M22.686,10.023c-0.094-0.303-0.236-0.586-0.43-0.851c-0.191-0.265-0.431-0.5-0.716-0.705
					c-0.286-0.205-0.621-0.367-1.005-0.485c-0.155-0.043-0.41-0.11-0.767-0.202c-0.357-0.092-0.724-0.187-1.096-0.284
					c-0.374-0.097-0.712-0.187-1.014-0.267c-0.302-0.081-0.476-0.127-0.52-0.138c-0.417-0.119-0.755-0.294-1.013-0.526
					c-0.259-0.232-0.388-0.553-0.388-0.964c0-0.292,0.069-0.534,0.206-0.729c0.138-0.194,0.311-0.348,0.519-0.462
					c0.209-0.113,0.439-0.194,0.692-0.243c0.253-0.048,0.5-0.072,0.741-0.072c0.715,0,1.303,0.154,1.764,0.462
					c0.308,0.205,0.525,0.507,0.651,0.907c0.133,0.416,0.56,0.672,1.002,0.672h0.004c0.718,0,1.195-0.722,0.919-1.374
					c-0.032-0.075-0.066-0.149-0.104-0.221c-0.243-0.459-0.569-0.846-0.98-1.158c-0.413-0.313-0.891-0.548-1.435-0.705
					c-0.291-0.084-0.595-0.141-0.906-0.18V0.929c0-0.418-0.346-0.757-0.77-0.757c-0.426,0-0.771,0.338-0.771,0.757v1.56
					c-0.287,0.033-0.572,0.083-0.856,0.157c-0.517,0.135-0.978,0.343-1.385,0.624c-0.406,0.281-0.733,0.634-0.98,1.061
					c-0.247,0.427-0.37,0.931-0.37,1.514c0,0.303,0.041,0.6,0.123,0.892c0.083,0.291,0.223,0.566,0.42,0.826
					c0.198,0.259,0.465,0.494,0.8,0.704c0.335,0.211,0.756,0.381,1.261,0.51c0.812,0.216,1.496,0.392,2.052,0.526
					c0.555,0.135,1.04,0.278,1.458,0.429c0.241,0.086,0.465,0.235,0.668,0.445c0.202,0.21,0.305,0.537,0.305,0.98
					c0,0.216-0.044,0.429-0.133,0.639c-0.087,0.211-0.23,0.397-0.428,0.559c-0.198,0.162-0.456,0.294-0.774,0.396
					c-0.319,0.103-0.703,0.154-1.153,0.154c-0.418,0-0.806-0.045-1.162-0.138c-0.356-0.091-0.673-0.237-0.948-0.437
					c-0.274-0.2-0.488-0.456-0.643-0.769c-0.104-0.212-0.159-0.466-0.193-0.737c-0.051-0.613-0.473-1.028-1.032-1.028
					c-0.561,0-1.04,0.463-1.04,1.028c0.048,0.546,0.175,1.035,0.388,1.458c0.263,0.524,0.615,0.953,1.055,1.288
					s0.956,0.583,1.549,0.745c0.328,0.089,0.671,0.148,1.021,0.188v1.568c0,0.418,0.346,0.757,0.771,0.757
					c0.424,0,0.77-0.338,0.77-0.757v-1.553c0.353-0.032,0.702-0.08,1.047-0.163c0.56-0.135,1.06-0.348,1.499-0.64
					c0.439-0.292,0.794-0.666,1.063-1.125c0.269-0.459,0.403-1.012,0.403-1.66C22.825,10.627,22.778,10.325,22.686,10.023z"></path>
				<path d="M18.043,17c-0.522,0-0.947-0.417-0.947-0.929v-1.417c-0.325-0.042-0.619-0.1-0.893-0.174
					c-0.613-0.168-1.154-0.429-1.609-0.775c-0.459-0.35-0.831-0.803-1.104-1.348c-0.22-0.434-0.355-0.944-0.405-1.519
					c-0.001-0.666,0.556-1.215,1.214-1.215c0.652,0,1.149,0.488,1.206,1.187c0.036,0.288,0.093,0.505,0.178,0.677
					c0.141,0.286,0.339,0.523,0.589,0.705c0.255,0.186,0.554,0.323,0.888,0.409c0.339,0.088,0.715,0.132,1.118,0.132
					c0.429,0,0.799-0.049,1.099-0.146c0.295-0.095,0.537-0.218,0.717-0.365c0.176-0.144,0.302-0.309,0.379-0.492
					c0.079-0.188,0.119-0.382,0.119-0.574c0-0.395-0.087-0.685-0.258-0.862c-0.183-0.189-0.384-0.325-0.601-0.402
					c-0.406-0.147-0.891-0.29-1.439-0.424c-0.557-0.135-1.24-0.311-2.056-0.527c-0.521-0.133-0.962-0.312-1.31-0.531
					c-0.352-0.221-0.636-0.472-0.845-0.746c-0.209-0.275-0.361-0.572-0.449-0.882c-0.085-0.306-0.129-0.622-0.129-0.938
					c0-0.611,0.132-1.149,0.393-1.599c0.26-0.446,0.606-0.821,1.031-1.116c0.422-0.291,0.906-0.509,1.441-0.649
					c0.229-0.06,0.468-0.106,0.726-0.142V0.929C17.096,0.417,17.521,0,18.043,0c0.521,0,0.945,0.417,0.945,0.929v1.419
					c0.281,0.041,0.537,0.095,0.78,0.165c0.562,0.162,1.063,0.408,1.491,0.733c0.43,0.326,0.775,0.734,1.029,1.215
					c0.039,0.077,0.076,0.155,0.11,0.234c0.153,0.364,0.113,0.775-0.108,1.101c-0.218,0.32-0.581,0.512-0.973,0.512
					c-0.543,0-1.024-0.326-1.173-0.793C20.03,5.15,19.84,4.883,19.563,4.7c-0.43-0.287-0.99-0.433-1.666-0.433
					c-0.229,0-0.467,0.023-0.708,0.069c-0.233,0.045-0.449,0.121-0.641,0.225C16.365,4.662,16.21,4.8,16.09,4.97
					c-0.117,0.165-0.176,0.377-0.176,0.631c0,0.363,0.108,0.637,0.33,0.837c0.237,0.213,0.555,0.377,0.944,0.488
					c0.039,0.01,0.214,0.056,0.517,0.137c0.302,0.081,0.639,0.17,1.012,0.267c0.373,0.097,0.739,0.191,1.097,0.284
					s0.613,0.16,0.77,0.203c0.405,0.125,0.761,0.297,1.06,0.512c0.301,0.216,0.556,0.466,0.756,0.744
					c0.203,0.279,0.356,0.583,0.454,0.901C22.95,10.291,23,10.613,23,10.929c0,0.676-0.145,1.263-0.427,1.746
					c-0.281,0.479-0.657,0.877-1.116,1.182c-0.456,0.302-0.979,0.526-1.556,0.665c-0.277,0.067-0.572,0.116-0.913,0.152v1.397
					C18.988,16.583,18.563,17,18.043,17z M14.299,9.968c-0.468,0-0.864,0.392-0.864,0.856c0.046,0.517,0.17,0.986,0.369,1.381
					c0.25,0.498,0.588,0.911,1.005,1.229c0.418,0.319,0.92,0.559,1.488,0.715c0.299,0.082,0.624,0.142,0.995,0.184l0.154,0.017
					v1.722c0,0.323,0.268,0.585,0.597,0.585c0.327,0,0.595-0.262,0.595-0.585v-1.71l0.158-0.015c0.396-0.036,0.72-0.086,1.021-0.159
					c0.536-0.129,1.022-0.337,1.442-0.616c0.416-0.275,0.756-0.635,1.01-1.069c0.252-0.43,0.38-0.959,0.38-1.574
					c0-0.283-0.044-0.572-0.131-0.857c-0.088-0.282-0.224-0.551-0.404-0.8c-0.181-0.247-0.408-0.472-0.678-0.666
					c-0.269-0.192-0.59-0.348-0.954-0.46c-0.149-0.042-0.403-0.108-0.759-0.2c-0.357-0.092-0.723-0.186-1.096-0.284
					c-0.374-0.097-0.713-0.187-1.015-0.267c-0.301-0.081-0.474-0.126-0.518-0.137c-0.445-0.127-0.811-0.317-1.087-0.566
					c-0.295-0.265-0.445-0.632-0.445-1.091c0-0.325,0.08-0.603,0.238-0.827c0.151-0.214,0.345-0.388,0.578-0.514
					c0.223-0.122,0.473-0.21,0.742-0.262c0.265-0.05,0.524-0.076,0.775-0.076c0.747,0,1.374,0.166,1.862,0.492
					c0.34,0.226,0.582,0.562,0.721,0.998c0.104,0.324,0.445,0.551,0.834,0.551c0.282,0,0.531-0.13,0.686-0.358
					c0.156-0.23,0.185-0.521,0.076-0.777c-0.03-0.071-0.063-0.141-0.099-0.209c-0.229-0.434-0.543-0.805-0.932-1.1
					c-0.394-0.299-0.856-0.526-1.377-0.676c-0.268-0.077-0.555-0.134-0.879-0.174L18.638,2.65V0.929
					c0-0.323-0.268-0.585-0.595-0.585c-0.329,0-0.597,0.262-0.597,0.585v1.712l-0.154,0.018c-0.302,0.036-0.574,0.085-0.833,0.153
					c-0.493,0.129-0.941,0.331-1.328,0.598c-0.383,0.265-0.695,0.603-0.929,1.005c-0.23,0.397-0.347,0.878-0.347,1.429
					c0,0.286,0.039,0.57,0.115,0.846c0.077,0.268,0.209,0.527,0.393,0.768c0.184,0.241,0.438,0.464,0.754,0.663
					c0.316,0.2,0.724,0.364,1.21,0.489C17.14,8.825,17.822,9,18.376,9.135c0.562,0.137,1.059,0.283,1.478,0.435
					c0.267,0.096,0.513,0.26,0.734,0.488c0.234,0.244,0.353,0.613,0.353,1.099c0,0.238-0.049,0.475-0.146,0.705
					c-0.098,0.235-0.258,0.445-0.479,0.625c-0.214,0.176-0.494,0.32-0.831,0.428c-0.335,0.107-0.742,0.163-1.208,0.163
					c-0.434,0-0.84-0.048-1.206-0.144c-0.377-0.097-0.717-0.253-1.008-0.465c-0.296-0.215-0.531-0.495-0.696-0.833
					c-0.102-0.207-0.169-0.458-0.209-0.791C15.114,10.317,14.77,9.968,14.299,9.968z"></path>
			</g>
		</g>
	</g>
</g>
<g id="Grid" display="none">
</g>
</svg>