<svg class="svgImageIcon svgImage js-inline-svg-loaded" version="1.1" xmlns="http://www.w3.org/2000/svg" xmlns:xlink="http://www.w3.org/1999/xlink" x="0px" y="0px" width="24px" height="19px" viewBox="0 0 24 19" enable-background="new 0 0 24 19" xml:space="preserve" aria-hidden="true" focusable="false">
<g id="Icons">
	<g>
		<g>
			<path d="M12,11.451c-0.132,0-0.264-0.027-0.388-0.08l-11-4.708C0.241,6.504,0,6.135,0,5.726s0.241-0.778,0.612-0.938l11-4.709
				c0.248-0.105,0.527-0.105,0.775,0l11,4.709C23.759,4.947,24,5.316,24,5.726s-0.241,0.778-0.612,0.938l-3.884,1.662
				c-0.508,0.215-1.095-0.024-1.31-0.544c-0.214-0.518,0.025-1.114,0.534-1.332l1.693-0.724L12,2.12L3.578,5.726L12,9.33
				l0.918-0.394c0.504-0.213,1.095,0.024,1.31,0.544c0.214,0.518-0.024,1.113-0.534,1.332l-1.306,0.559
				C12.264,11.424,12.132,11.451,12,11.451z"></path>
		</g>
		<g>
			<path d="M12,19c-4.605,0-9.5-1.635-9.5-4.663V10.41c0-0.562,0.447-1.018,1-1.018s1,0.455,1,1.018v3.927
				c0,1.046,2.991,2.629,7.5,2.629s7.5-1.583,7.5-2.629V10.41c0-0.562,0.447-1.018,1-1.018s1,0.455,1,1.018v3.927
				C21.5,17.365,16.605,19,12,19z"></path>
		</g>
		<g>
			<path d="M16.201,12.899c-0.483,0-0.875-0.398-0.875-0.891V7.748l-3.459-1.451c-0.446-0.187-0.659-0.707-0.475-1.162
				c0.183-0.454,0.695-0.67,1.143-0.482l4,1.677c0.327,0.138,0.541,0.462,0.541,0.823v4.856
				C17.076,12.501,16.685,12.899,16.201,12.899z"></path>
		</g>
		<g>
			<path d="M17.248,13.359h-2.047c-0.483,0-0.875-0.397-0.875-0.89c0-0.491,0.392-0.89,0.875-0.89h2.047
				c0.483,0,0.875,0.398,0.875,0.89C18.123,12.962,17.731,13.359,17.248,13.359z"></path>
		</g>
	</g>
</g>
<g id="Grid" display="none">
</g>
</svg>