<svg  xmlns="http://www.w3.org/2000/svg" viewBox="0 0 64 64" aria-hidden="true" focusable="false">
	<g id="Layer_11" data-name="Layer 11">
		<path class="cls-1" d="M63.28,21.5,52.85,10.16a1.88,1.88,0,0,0-2.49-.26,13.55,13.55,0,0,1-4.74,1.8h-.79a5.5,5.5,0,0,1-1.34-.09A60.68,60.68,0,0,0,32.9,10.53a11.17,11.17,0,0,0-1.58.09A35.26,35.26,0,0,0,24,13a2.36,2.36,0,0,0-.94.88,13.4,13.4,0,0,1-1.77.13A4.26,4.26,0,0,1,20,13.88,28.2,28.2,0,0,1,15,10.55a1.88,1.88,0,0,0-2.69.24L.67,25.66a1.87,1.87,0,0,0,.17,2.6L8,34.93a5.93,5.93,0,0,0-1,1.92,5.41,5.41,0,0,0,1.75,5.29,5.29,5.29,0,0,0,2,1.11,5.3,5.3,0,0,0,1.75,3.55,5.86,5.86,0,0,0,3.94,1.66,6.78,6.78,0,0,0,1.78,1.77,5.43,5.43,0,0,0,2.83.94,5.62,5.62,0,0,0,1.39,1.89,5.41,5.41,0,0,0,4.29,1.35,5.15,5.15,0,0,0,3.28-2,15.59,15.59,0,0,0,5.73,1.49,5.28,5.28,0,0,0,1.63-.23,6.67,6.67,0,0,0,4-3,5.46,5.46,0,0,0,3.25-1.12,5.58,5.58,0,0,0,2.06-3,5.42,5.42,0,0,0,1.12-.31l.19-.08a4.81,4.81,0,0,0,3-2.43c1.93-.31,3.38-2.33,3.94-3.23a5.43,5.43,0,0,0,.28-5.1l0-.06c.3-.27.63-.6,1-1S59,30.4,63.45,23.83A1.88,1.88,0,0,0,63.28,21.5ZM10.88,39.43a1.6,1.6,0,0,1-.09-2.26L14,33.71a1.59,1.59,0,1,1,2.35,2.16l-3.19,3.47A1.6,1.6,0,0,1,10.88,39.43ZM17,43.92a1.59,1.59,0,1,1-2.51-2l5.59-7.17a1.59,1.59,0,1,1,2.51,2Zm4.65,3.63a1.59,1.59,0,1,1-2.51-2L24,39.29a1.59,1.59,0,1,1,2.51,2Zm8.27-1.1-2.67,3.42A1.43,1.43,0,1,1,25,48.12l2.67-3.42a1.43,1.43,0,1,1,2.24,1.75Zm6.89,3a5.67,5.67,0,0,1-.64.25,1.3,1.3,0,0,1-.39,0,11,11,0,0,1-3.47-.92A.64.64,0,0,1,32,48a22.32,22.32,0,0,0,.76-2.21l0-.17,4.13,2.72a.64.64,0,0,1,.29.58A.63.63,0,0,1,36.81,49.44ZM52,37.42a2.12,2.12,0,0,1-.87,1.42.48.48,0,0,1-.27.08.69.69,0,0,1-.37-.12l-10-6.63a1.64,1.64,0,0,0-2.28.48l-.19.29a1.64,1.64,0,0,0,.49,2.26l8.89,5.72a.83.83,0,0,1,0,.22,2,2,0,0,1-1,1.13,2.84,2.84,0,0,1-.84.16h0a.7.7,0,0,1-.4-.1l-7.6-4.84a1.64,1.64,0,0,0-2.26.5l-.19.3a1.64,1.64,0,0,0,.5,2.26l6.86,4.37a.67.67,0,0,1,.3.44.54.54,0,0,1-.09.42,2,2,0,0,1-.41.41,1.49,1.49,0,0,1-.94.27,3.1,3.1,0,0,1-.7-.08l-5.92-3.9a1.64,1.64,0,0,0-2.16.32,5.92,5.92,0,0,0-2.52-2.52,4.79,4.79,0,0,0-2.19-4.07,5.43,5.43,0,0,0-1.44-.75,4.15,4.15,0,0,0-.09-.78,4.74,4.74,0,0,0-2.27-3,4.46,4.46,0,0,0-2.41-.72,5.23,5.23,0,0,0-2.6.75.63.63,0,0,1-.32.09.74.74,0,0,1-.5-.21,4.2,4.2,0,0,0-3-1.09,3.34,3.34,0,0,0-.58,0,4.84,4.84,0,0,0-3,1.18.67.67,0,0,1-.42.15.63.63,0,0,1-.44-.18L5.79,27.05a.64.64,0,0,1,0-.87L14.1,15.45a.64.64,0,0,1,.88-.06l1.41,1a6.28,6.28,0,0,0,2.35,1.43,8,8,0,0,0,2.29.35c-1,1.89-2.36,4.39-3.93,7.46l-.47.93.57.88A5.34,5.34,0,0,0,21.76,30a7.68,7.68,0,0,0,3.05-.7,10.71,10.71,0,0,0,5.32-5.53.65.65,0,0,1,.59-.39h.46a.64.64,0,0,1,.32.08c9.28,5.29,19.69,12.44,20.08,12.77A1.5,1.5,0,0,1,52,37.42ZM59.13,24c-1.37,1.78-4.85,6.07-6.39,7.86a.63.63,0,0,1-.48.22.64.64,0,0,1-.38-.12c-4.61-3.34-16.68-10.6-19.06-12a1.64,1.64,0,0,0-.84-.23H27.56l-.36.87v.05s-.83,3.72-3.82,5a4.88,4.88,0,0,1-1.24.37h0a.62.62,0,0,1-.57-.29.65.65,0,0,1,0-.65c2.16-4.16,3.86-7.26,4.55-8.29a.61.61,0,0,1,.28-.23,31.17,31.17,0,0,1,5.59-1.84,7.23,7.23,0,0,1,1,0,61.94,61.94,0,0,1,9.37.91,16.44,16.44,0,0,0,2.06.11c1.87,0,4.45-.23,6.14-1.32a.29.29,0,0,1,.16,0,.72.72,0,0,1,.48.24l8,8.63A.63.63,0,0,1,59.13,24Z">
		</path>
	</g>
</svg>