<svg xmlns="http://www.w3.org/2000/svg" xmlns:xlink="http://www.w3.org/1999/xlink" width="34" height="36" viewBox="0 0 34 36" aria-hidden="true" focusable="false">
  <defs>
    <path id="icon-dec-home-a" d="M34,12.7605926 L17.7619398,0.259520491 C17.3128126,-0.0865068303 16.6871874,-0.0865068303 16.2380602,0.259520491 L0,12.7605926 L1.5238795,14.735762 L3.26010287,13.3981473 L3.26010287,33.7498928 C3.26010287,34.4403079 3.81933573,35 4.50918442,35 L13.2527553,35 C13.942604,35 14.5018369,34.4403079 14.5018369,33.7498928 L14.5018369,24.9991423 L19.4981631,24.9991423 L19.4981631,33.7498928 C19.4981631,34.4403079 20.057396,35 20.7472447,35 L29.4908156,35 C30.1806643,35 30.7398971,34.4403079 30.7398971,33.7498928 L30.7398971,13.3981473 L32.4761205,14.735762 L34,12.7605926 Z M28.241734,32.4997856 L21.9963262,32.4997856 L21.9963262,23.7490351 C21.9963262,23.0586199 21.4370934,22.4989278 20.7472447,22.4989278 L13.2527553,22.4989278 C12.5629066,22.4989278 12.0036738,23.0586199 12.0036738,23.7490351 L12.0036738,32.4997856 L5.75826598,32.4997856 L5.75826598,11.4729822 L17,2.82224028 L28.241734,11.4729822 L28.241734,32.4997856 Z"></path>
  </defs>
  <use transform="translate(0 .5)" xlink:href="#icon-dec-home-a"></use>
</svg>