<svg xmlns="http://www.w3.org/2000/svg" viewBox="0 0 313.6 313.6" aria-hidden="true" focusable="false" class="svgImage svgImageIcon js-inline-svg-loaded"><defs><style>.cls-1{fill:#fff;}</style></defs><path class="cls-1" d="M200.49,75.87c41.87,0,46.83.16,63.37.92,15.28.69,23.59,3.25,29.11,5.4A51.93,51.93,0,0,1,322.73,112c2.15,5.52,4.7,13.82,5.4,29.11.75,16.54.91,21.49.91,63.36s-.16,46.83-.91,63.36c-.7,15.29-3.25,23.59-5.4,29.12A51.93,51.93,0,0,1,293,326.66c-5.52,2.15-13.83,4.7-29.11,5.4-16.54.75-21.49.91-63.37.91s-46.82-.16-63.36-.91c-15.28-.7-23.59-3.25-29.11-5.4A51.93,51.93,0,0,1,78.26,296.9c-2.15-5.53-4.7-13.83-5.4-29.12-.75-16.53-.91-21.49-.91-63.36s.16-46.82.91-63.36c.7-15.29,3.25-23.59,5.4-29.11A51.93,51.93,0,0,1,108,82.19c5.52-2.15,13.83-4.71,29.11-5.4,16.54-.76,21.5-.92,63.36-.92m0-28.25c-42.58,0-47.92.18-64.64.94S107.76,52,97.78,55.85a80.24,80.24,0,0,0-45.86,45.86c-3.87,10-6.52,21.37-7.28,38.06s-1,22.07-1,64.65.18,47.93,1,64.65,3.41,28.09,7.28,38.06A80.16,80.16,0,0,0,97.78,353c10,3.88,21.38,6.53,38.07,7.29s22.06.94,64.64.94,47.93-.18,64.65-.94,28.09-3.41,38.07-7.29a80.11,80.11,0,0,0,45.85-45.86c3.88-10,6.53-21.37,7.29-38.06s.95-22.06.95-64.65-.18-47.92-.95-64.65-3.41-28.08-7.29-38.06a80.18,80.18,0,0,0-45.85-45.86c-10-3.87-21.38-6.52-38.07-7.29s-22.06-.94-64.65-.94Z" transform="translate(-43.69 -47.62)"></path><path class="cls-1" d="M200.49,123.9A80.52,80.52,0,1,0,281,204.42,80.52,80.52,0,0,0,200.49,123.9Zm0,132.79a52.27,52.27,0,1,1,52.27-52.27A52.27,52.27,0,0,1,200.49,256.69Z" transform="translate(-43.69 -47.62)"></path><circle class="cls-1" cx="240.5" cy="73.1" r="18.82"></circle></svg>