<svg class="svgImageIcon svgImage js-inline-svg-loaded" version="1.1" xmlns="http://www.w3.org/2000/svg" xmlns:xlink="http://www.w3.org/1999/xlink" x="0px" y="0px" width="24px" height="13px" viewBox="0 0 24 13" enable-background="new 0 0 24 13" xml:space="preserve" aria-hidden="true" focusable="false">
<g id="Icons">
	<g>
		<g>
			<g>
				<g>
					<path d="M6.946,6.998c-1.957,0-3.548-1.57-3.548-3.5C3.397,1.569,4.989,0,6.946,0s3.548,1.569,3.548,3.498
						C10.494,5.428,8.902,6.998,6.946,6.998z M6.946,1.972c-0.854,0-1.548,0.686-1.548,1.526c0,0.843,0.694,1.527,1.548,1.527
						s1.548-0.685,1.548-1.527C8.494,2.657,7.8,1.972,6.946,1.972z"></path>
				</g>
				<g>
					<path d="M12.892,13c-0.552,0-1-0.441-1-0.986c0-0.823-2.04-2.343-4.946-2.343C4.04,9.671,2,11.19,2,12.014
						C2,12.559,1.552,13,1,13s-1-0.441-1-0.986c0-2.298,3.246-4.314,6.946-4.314s6.946,2.017,6.946,4.314
						C13.892,12.559,13.444,13,12.892,13z"></path>
				</g>
			</g>
			<g>
				<g>
					<path d="M17.648,7.598c-1.816,0-3.293-1.457-3.293-3.247c0-1.791,1.478-3.248,3.293-3.248s3.293,1.457,3.293,3.248
						C20.942,6.141,19.464,7.598,17.648,7.598z M17.648,3.075c-0.713,0-1.293,0.571-1.293,1.275c0,0.703,0.58,1.275,1.293,1.275
						s1.293-0.572,1.293-1.275C18.942,3.646,18.362,3.075,17.648,3.075z"></path>
				</g>
				<g>
					<path d="M23,13c-0.552,0-1-0.441-1-0.986c0-0.688-1.837-2.01-4.352-2.01c-0.504,0-1.006,0.053-1.49,0.155
						c-0.364,0.078-0.715,0.183-1.042,0.314c-0.513,0.201-1.095-0.042-1.302-0.547c-0.207-0.504,0.041-1.079,0.553-1.283
						c0.433-0.172,0.893-0.311,1.369-0.412c0.623-0.132,1.266-0.199,1.912-0.199c3.384,0,6.352,1.86,6.352,3.981
						C24,12.559,23.552,13,23,13z"></path>
				</g>
			</g>
		</g>
	</g>
</g>
<g id="Grid" display="none">
</g>
</svg>