<svg class="svgImageIcon svgImage js-inline-svg-loaded" version="1.1" xmlns="http://www.w3.org/2000/svg" xmlns:xlink="http://www.w3.org/1999/xlink" x="0px" y="0px" width="21px" height="21px" viewBox="0 0 21 21" enable-background="new 0 0 21 21" xml:space="preserve" aria-hidden="true" focusable="false">
<g id="Icons">
	<g>
		<g>
			<g>
				<path d="M8.981,21C4.029,21,0,16.971,0,12.019c0-4.953,4.029-8.982,8.981-8.982c0.489,0,0.886,0.396,0.886,0.886v7.211h7.211
					c0.489,0,0.886,0.396,0.886,0.886C17.964,16.971,13.935,21,8.981,21z M8.097,4.861C4.536,5.3,1.771,8.342,1.771,12.019
					c0,3.976,3.234,7.21,7.21,7.21c3.677,0,6.719-2.765,7.157-6.325H8.981c-0.488,0-0.885-0.396-0.885-0.885V4.861z"></path>
			</g>
			<g>
				<path d="M20.114,9.867h-8.096c-0.489,0-0.886-0.396-0.886-0.886V0.886C11.133,0.396,11.529,0,12.019,0
					C16.971,0,21,4.029,21,8.981C21,9.471,20.604,9.867,20.114,9.867z M12.903,8.097h6.271c-0.402-3.27-3.002-5.869-6.271-6.271
					V8.097z"></path>
			</g>
		</g>
	</g>
</g>
<g id="Grid" display="none">
</g>
</svg>