<svg class="svgImageIcon svgImage js-inline-svg-loaded" version="1.1" xmlns="http://www.w3.org/2000/svg" xmlns:xlink="http://www.w3.org/1999/xlink" x="0px" y="0px" width="24px" height="20px" viewBox="0 0 24 20" enable-background="new 0 0 24 20" xml:space="preserve" aria-hidden="true" focusable="false">
<g id="Icons">
	<g>
		<path d="M7.14,6.068c-0.321,0-0.631-0.178-0.784-0.485C6.141,5.15,6.317,4.625,6.75,4.41c2.537-1.261,5.463-1.371,8.062-0.296
			c0.447,0.185,0.659,0.696,0.474,1.144c-0.185,0.446-0.697,0.656-1.143,0.474C12.008,4.849,9.615,4.938,7.53,5.977
			C7.405,6.039,7.272,6.068,7.14,6.068z"></path>
	</g>
	<g>
		<circle cx="17.227" cy="6.665" r="1"></circle>
	</g>
	<g>
		<g>
			<path d="M16.937,20h-3.166c-0.558,0-1.043-0.396-1.156-0.941l-0.102-0.495c-0.93,0.1-1.873,0.1-2.803,0l-0.102,0.494
				C9.497,19.604,9.011,20,8.454,20H5.288c-0.558,0-1.043-0.396-1.156-0.941l-0.595-2.901c-1.978-1.531-3.218-3.595-3.505-5.851
				c-0.063-0.741-0.01-1.844-0.008-1.89C0.6,3.588,5.364,0,11.112,0c2.15,0,3.792,0.325,5.282,1.05
				c0.521-0.091,1.972-0.499,3.16-0.874c0.332-0.101,0.694-0.028,0.957,0.199c0.263,0.229,0.388,0.577,0.33,0.921L20.366,4.12
				c0.525,0.652,0.947,1.354,1.258,2.097l1.386,0.431C23.604,6.834,24,7.374,24,7.992v2.653c0,0.621-0.399,1.161-0.993,1.344
				l-1.383,0.432c-0.602,1.436-1.607,2.714-2.939,3.739l-0.593,2.897C17.98,19.604,17.495,20,16.937,20z M14.44,18h1.828l0.52-2.573
				c0.044-0.263,0.19-0.497,0.408-0.651c1.311-0.93,2.253-2.138,2.726-3.494c0.104-0.299,0.344-0.531,0.646-0.626L22,10.209V8.428
				l-1.433-0.445c-0.303-0.095-0.542-0.327-0.647-0.626c-0.285-0.817-0.744-1.584-1.364-2.278c-0.202-0.227-0.291-0.532-0.24-0.832
				l0.285-1.693c-0.952,0.271-1.921,0.515-2.344,0.515c-0.16,0-0.412-0.053-0.554-0.126C14.436,2.281,13.062,2,11.112,2
				C6.376,2,2.465,4.831,2.015,8.585C2.007,8.796,1.98,9.627,2.021,10.097c0.227,1.773,1.294,3.448,3,4.673
				c0.203,0.146,0.344,0.362,0.396,0.607L5.957,18h1.828l0.156-0.759c0.109-0.532,0.624-0.879,1.158-0.784
				c1.32,0.24,2.708,0.24,4.028,0c0.535-0.096,1.049,0.251,1.158,0.784L14.44,18z"></path>
		</g>
	</g>
</g>
<g id="Grid" display="none">
</g>
</svg>